<svg xmlns="http://www.w3.org/2000/svg" width="201" height="36" fill="none"><path d="M 50.977 16.861 C 50.977 17.035 51.054 17.094 51.229 17.094 L 54.397 17.094 C 56.943 17.094 58.012 15.831 58.012 12.818 C 58.012 9.826 56.943 8.562 54.397 8.562 L 51.229 8.562 C 51.054 8.562 50.977 8.62 50.977 8.796 Z M 54.397 6.269 C 58.225 6.269 60.305 8.407 60.305 12.837 C 60.305 17.249 58.245 19.387 54.397 19.387 L 49.771 19.387 C 49.033 19.387 48.684 19.037 48.684 18.318 L 48.684 7.338 C 48.684 6.619 49.033 6.269 49.771 6.269 Z" fill="rgb(255,255,255)"></path><path d="M 65.297 16.861 C 65.297 17.035 65.374 17.094 65.55 17.094 L 68.717 17.094 C 71.263 17.094 72.332 15.831 72.332 12.818 C 72.332 9.826 71.263 8.562 68.717 8.562 L 65.55 8.562 C 65.374 8.562 65.297 8.62 65.297 8.796 Z M 68.717 6.269 C 72.546 6.269 74.625 8.407 74.625 12.837 C 74.625 17.249 72.566 19.387 68.717 19.387 L 64.092 19.387 C 63.353 19.387 63.004 19.037 63.004 18.318 L 63.004 7.338 C 63.004 6.619 63.353 6.269 64.092 6.269 Z" fill="rgb(255,255,255)"></path><path d="M 87.838 6.269 L 87.838 8.563 L 82.766 8.563 C 80.239 8.563 79.131 9.826 79.131 12.837 C 79.131 15.831 80.22 17.094 82.766 17.094 L 87.838 17.094 L 87.838 19.387 L 82.766 19.387 C 78.937 19.387 76.838 17.23 76.838 12.837 C 76.838 8.427 78.957 6.269 82.766 6.269 Z" fill="rgb(255,255,255)"></path><path d="M 98.057 6.269 L 98.057 11.613 L 104.761 11.613 L 104.761 6.269 L 107.073 6.269 L 107.073 19.387 L 104.761 19.387 L 104.761 13.906 L 98.057 13.906 L 98.057 19.387 L 95.764 19.387 L 95.764 6.269 Z" fill="rgb(255,255,255)"></path><path d="M 115.679 8.562 C 113.153 8.562 112.045 9.845 112.045 12.857 C 112.045 15.85 113.134 17.094 115.679 17.094 L 117.468 17.094 C 119.994 17.094 121.082 15.85 121.082 12.837 C 121.082 9.845 119.994 8.562 117.468 8.562 Z M 117.468 6.269 C 121.276 6.269 123.395 8.446 123.395 12.857 C 123.395 17.249 121.295 19.387 117.468 19.387 L 115.679 19.387 C 111.85 19.387 109.752 17.249 109.752 12.857 C 109.752 8.446 111.87 6.269 115.679 6.269 Z" fill="rgb(255,255,255)"></path><path d="M 128.248 6.269 L 128.248 14.839 C 128.248 16.103 128.87 17.094 130.93 17.094 L 136.022 17.094 L 136.022 19.387 L 130.794 19.387 C 127.315 19.387 125.955 17.483 125.955 14.858 L 125.955 6.269 Z" fill="rgb(255,255,255)"></path><path d="M 140.471 16.861 C 140.471 17.035 140.548 17.094 140.724 17.094 L 143.891 17.094 C 146.437 17.094 147.506 15.831 147.506 12.818 C 147.506 9.826 146.437 8.563 143.891 8.563 L 140.724 8.563 C 140.548 8.563 140.471 8.621 140.471 8.796 Z M 143.891 6.269 C 147.72 6.269 149.799 8.407 149.799 12.837 C 149.799 17.249 147.739 19.387 143.891 19.387 L 139.266 19.387 C 138.527 19.387 138.178 19.037 138.178 18.318 L 138.178 7.338 C 138.178 6.619 138.527 6.269 139.266 6.269 Z" fill="rgb(255,255,255)"></path><path d="M 154.789 19.387 L 152.496 19.387 L 152.496 6.269 L 154.789 6.269 Z" fill="rgb(255,255,255)"></path><path d="M 160.231 19.388 L 157.938 19.388 L 157.938 8.894 C 157.938 7.184 158.909 6.037 160.95 6.037 C 162.776 6.037 163.592 6.97 164.136 8.466 L 167.965 16.842 C 168.121 17.153 168.373 17.386 168.801 17.386 C 169.286 17.386 169.579 17.095 169.579 16.649 L 169.579 6.27 L 171.891 6.27 L 171.891 16.745 C 171.891 18.474 170.899 19.621 168.878 19.621 C 167.052 19.621 166.216 18.688 165.672 17.192 L 161.843 8.816 C 161.669 8.427 161.435 8.253 161.028 8.253 C 160.502 8.253 160.231 8.543 160.231 9.011 Z" fill="rgb(255,255,255)"></path><path d="M 185.879 6.269 L 185.879 8.563 L 180.477 8.563 C 177.95 8.563 176.842 9.826 176.842 12.837 C 176.842 15.831 177.931 17.094 180.477 17.094 L 182.653 17.094 C 183.936 17.094 184.48 16.317 184.48 15.248 C 184.48 14.198 183.936 13.576 182.866 13.576 L 179.952 13.576 L 179.952 11.575 L 183.101 11.575 C 185.433 11.575 186.578 13.013 186.578 15.286 C 186.578 17.579 185.433 19.387 182.498 19.387 L 180.477 19.387 C 176.648 19.387 174.549 17.23 174.549 12.837 C 174.549 8.427 176.668 6.269 180.477 6.269 Z" fill="rgb(255,255,255)"></path><path d="M 199.325 6.269 L 199.325 8.563 L 192.601 8.563 C 191.414 8.563 190.891 9.204 190.891 10.117 C 190.891 10.914 191.298 11.672 192.834 11.672 L 195.904 11.672 C 199.48 11.672 200.316 13.654 200.316 15.539 C 200.316 17.755 199.13 19.387 196.137 19.387 L 188.83 19.387 L 188.83 17.094 L 196.216 17.094 C 197.459 17.094 198.023 16.414 198.023 15.462 C 198.023 14.607 197.575 13.829 195.962 13.829 L 192.912 13.829 C 189.414 13.829 188.598 11.866 188.598 10.04 C 188.598 7.863 189.763 6.269 192.678 6.269 Z" fill="rgb(255,255,255)"></path><path d="M 51.186 33.051 C 49.428 33.051 47.996 32.078 47.996 30.221 L 47.996 27.444 C 47.996 25.532 49.342 24.392 51.186 24.392 C 52.876 24.392 54.256 25.131 54.256 26.951 L 54.256 27.221 L 53.157 27.221 L 53.157 27.067 C 53.157 25.858 52.297 25.422 51.163 25.422 C 50.047 25.422 49.171 26.104 49.171 27.381 L 49.171 30.153 C 49.171 31.339 50.001 32.025 51.209 32.025 C 52.308 32.025 53.157 31.488 53.157 30.313 L 53.157 29.661 L 51.032 29.661 L 51.032 28.612 L 54.256 28.612 L 54.256 30.325 C 54.256 32.18 52.864 33.051 51.186 33.051 Z" fill="rgb(255,255,255)"></path><path d="M 58.644 27.872 C 58.455 27.872 58.129 27.912 57.962 27.97 C 57.355 28.193 56.92 28.8 56.92 29.671 L 56.92 32.906 L 55.838 32.906 L 55.838 26.973 L 56.897 26.973 L 56.897 28.027 L 56.92 28.027 C 57.367 27.3 58.094 26.876 58.879 26.876 C 59.051 26.876 59.262 26.91 59.405 26.927 L 59.405 27.923 C 59.262 27.901 58.701 27.872 58.644 27.872 Z" fill="rgb(255,255,255)"></path><path d="M 64.141 29.226 C 64.141 28.354 63.711 27.76 62.761 27.76 C 61.879 27.76 61.363 28.297 61.363 29.26 L 61.363 30.669 C 61.363 31.534 61.799 32.147 62.749 32.147 C 63.625 32.147 64.141 31.608 64.141 30.646 Z M 62.761 33.051 C 61.272 33.051 60.258 32.204 60.258 30.692 L 60.258 29.306 C 60.258 27.737 61.374 26.843 62.749 26.843 C 64.227 26.843 65.246 27.771 65.246 29.283 L 65.246 30.6 C 65.246 32.169 64.118 33.051 62.761 33.051 Z" fill="rgb(255,255,255)"></path><path d="M 72.888 32.92 L 71.795 32.92 L 70.448 28.332 L 70.414 28.332 L 69.051 32.92 L 67.975 32.92 L 66.084 26.975 L 67.224 26.975 L 68.525 31.523 L 68.558 31.523 L 69.922 26.975 L 70.976 26.975 L 72.326 31.523 L 72.35 31.523 L 73.685 26.975 L 74.767 26.975 Z" fill="rgb(255,255,255)"></path><path d="M 80.866 33.051 C 79.258 33.051 78.049 32.272 77.699 30.892 L 78.799 30.548 C 79.068 31.43 79.773 32.037 80.889 32.037 C 81.777 32.037 82.717 31.608 82.717 30.634 C 82.717 29.821 82.098 29.483 81.296 29.271 C 81.027 29.203 79.881 28.859 79.624 28.767 C 78.811 28.464 78.147 27.851 78.147 26.785 C 78.147 25.262 79.349 24.404 80.889 24.404 C 82.224 24.404 83.306 24.873 83.747 26.081 L 82.75 26.505 C 82.379 25.721 81.766 25.388 80.878 25.388 C 80.076 25.388 79.303 25.835 79.303 26.666 C 79.303 27.324 79.818 27.65 80.488 27.84 C 80.758 27.925 81.943 28.263 82.235 28.366 C 83.129 28.675 83.89 29.271 83.89 30.514 C 83.89 32.123 82.545 33.051 80.866 33.051 Z" fill="rgb(255,255,255)"></path><path d="M 92.564 32.908 L 92.564 29.191 C 92.564 28.286 92.169 27.782 91.43 27.782 C 90.593 27.782 89.999 28.521 89.999 29.437 L 89.999 32.908 L 88.916 32.908 L 88.916 29.203 C 88.916 28.32 88.555 27.782 87.782 27.782 C 87.112 27.782 86.35 28.378 86.35 29.403 L 86.35 32.908 L 85.268 32.908 L 85.268 26.975 L 86.316 26.975 L 86.316 27.851 L 86.338 27.851 C 86.763 27.221 87.323 26.843 88.131 26.843 C 89.002 26.843 89.528 27.267 89.809 27.863 C 89.809 27.863 89.855 27.863 89.855 27.851 C 90.279 27.244 90.874 26.843 91.733 26.843 C 92.908 26.843 93.647 27.639 93.647 28.791 L 93.647 32.908 Z" fill="rgb(255,255,255)"></path><path d="M 98.692 30.256 L 97.277 30.256 C 96.596 30.256 95.995 30.468 95.995 31.252 C 95.995 31.889 96.527 32.169 97.169 32.169 C 98.177 32.169 98.692 31.619 98.692 30.817 Z M 98.767 32.908 C 98.755 32.764 98.721 32.438 98.721 32.3 L 98.68 32.3 C 98.188 32.828 97.672 33.039 96.968 33.039 C 95.846 33.039 94.918 32.449 94.918 31.339 C 94.918 29.953 96.195 29.46 97.214 29.46 L 98.692 29.46 L 98.692 28.767 C 98.692 28.006 98.228 27.668 97.461 27.668 C 96.831 27.668 96.229 27.884 96.229 28.464 L 96.229 28.652 L 95.245 28.652 L 95.245 28.521 C 95.245 27.267 96.373 26.831 97.501 26.831 C 98.704 26.831 99.763 27.278 99.763 28.623 L 99.763 31.665 C 99.763 32.014 99.797 32.65 99.855 32.908 Z" fill="rgb(255,255,255)"></path><path d="M 104.193 27.872 C 104.004 27.872 103.678 27.912 103.511 27.97 C 102.904 28.193 102.469 28.8 102.469 29.671 L 102.469 32.906 L 101.387 32.906 L 101.387 26.973 L 102.446 26.973 L 102.446 28.027 L 102.469 28.027 C 102.916 27.3 103.643 26.876 104.427 26.876 C 104.599 26.876 104.811 26.91 104.954 26.927 L 104.954 27.923 C 104.811 27.901 104.25 27.872 104.193 27.872 Z" fill="rgb(255,255,255)"></path><path d="M 107.953 33 C 107.169 33 106.384 32.684 106.384 31.619 L 106.384 27.863 L 105.41 27.863 L 105.41 26.998 L 106.372 26.998 L 106.372 25.061 L 107.448 25.061 L 107.448 26.998 L 109.069 26.998 L 109.069 27.851 L 107.448 27.851 L 107.448 31.396 C 107.448 31.901 107.718 32.089 108.165 32.089 C 108.514 32.089 108.834 32.014 109.115 31.934 L 109.115 32.805 C 108.726 32.943 108.211 33 107.953 33 Z" fill="rgb(255,255,255)"></path><path d="M 113.803 29.191 C 113.803 28.366 113.368 27.76 112.48 27.76 C 111.61 27.76 111.036 28.309 111.036 29.168 L 111.036 29.46 L 113.803 29.46 Z M 112.606 33.051 C 111.14 33.051 109.92 32.272 109.92 30.634 L 109.92 29.391 C 109.92 27.725 111.06 26.843 112.491 26.843 C 113.815 26.843 114.874 27.65 114.874 29.203 L 114.874 30.256 L 111.036 30.256 L 111.036 30.634 C 111.036 31.522 111.656 32.135 112.657 32.135 C 113.207 32.135 113.723 31.779 114.038 31.35 L 114.874 31.768 C 114.341 32.628 113.512 33.051 112.606 33.051 Z" fill="rgb(255,255,255)"></path><path d="M 119.034 27.872 C 118.846 27.872 118.519 27.912 118.353 27.97 C 117.746 28.193 117.31 28.8 117.31 29.671 L 117.31 32.906 L 116.229 32.906 L 116.229 26.973 L 117.288 26.973 L 117.288 28.027 L 117.31 28.027 C 117.758 27.3 118.485 26.876 119.269 26.876 C 119.441 26.876 119.653 26.91 119.796 26.927 L 119.796 27.923 C 119.653 27.901 119.092 27.872 119.034 27.872 Z" fill="rgb(255,255,255)"></path><path d="M 121.575 34.162 L 120.957 34.162 L 121.272 32.874 L 120.883 32.874 L 120.883 31.373 L 122.079 31.373 L 122.079 32.851 Z" fill="rgb(255,255,255)"></path><path d="M 131.069 32.908 L 131.069 29.105 L 127.221 29.105 L 127.221 32.908 L 126.064 32.908 L 126.064 24.547 L 127.209 24.547 L 127.209 28.086 L 131.069 28.086 L 131.069 24.547 L 132.232 24.547 L 132.232 32.908 Z" fill="rgb(255,255,255)"></path><path d="M 137.387 30.256 L 135.972 30.256 C 135.291 30.256 134.69 30.468 134.69 31.252 C 134.69 31.889 135.223 32.169 135.865 32.169 C 136.872 32.169 137.387 31.618 137.387 30.817 Z M 137.462 32.907 C 137.45 32.764 137.416 32.438 137.416 32.3 L 137.375 32.3 C 136.883 32.827 136.368 33.039 135.663 33.039 C 134.541 33.039 133.613 32.449 133.613 31.339 C 133.613 29.953 134.891 29.46 135.909 29.46 L 137.387 29.46 L 137.387 28.767 C 137.387 28.005 136.924 27.668 136.156 27.668 C 135.526 27.668 134.924 27.884 134.924 28.464 L 134.924 28.652 L 133.94 28.652 L 133.94 28.521 C 133.94 27.267 135.068 26.831 136.197 26.831 C 137.399 26.831 138.458 27.278 138.458 28.623 L 138.458 31.665 C 138.458 32.014 138.493 32.65 138.55 32.907 Z" fill="rgb(255,255,255)"></path><path d="M 142.888 27.872 C 142.699 27.872 142.373 27.912 142.206 27.97 C 141.6 28.193 141.164 28.8 141.164 29.671 L 141.164 32.906 L 140.082 32.906 L 140.082 26.973 L 141.141 26.973 L 141.141 28.027 L 141.164 28.027 C 141.611 27.3 142.338 26.876 143.122 26.876 C 143.295 26.876 143.506 26.91 143.649 26.927 L 143.649 27.923 C 143.506 27.901 142.945 27.872 142.888 27.872 Z" fill="rgb(255,255,255)"></path><path d="M 147.32 32.92 L 146.214 32.92 L 144.129 26.975 L 145.269 26.975 L 146.781 31.574 L 146.804 31.574 L 148.316 26.975 L 149.404 26.975 Z" fill="rgb(255,255,255)"></path><path d="M 154.069 29.191 C 154.069 28.366 153.633 27.76 152.745 27.76 C 151.876 27.76 151.302 28.309 151.302 29.168 L 151.302 29.46 L 154.069 29.46 Z M 152.872 33.051 C 151.406 33.051 150.186 32.272 150.186 30.634 L 150.186 29.391 C 150.186 27.725 151.325 26.843 152.757 26.843 C 154.081 26.843 155.14 27.65 155.14 29.203 L 155.14 30.256 L 151.302 30.256 L 151.302 30.634 C 151.302 31.522 151.921 32.135 152.923 32.135 C 153.472 32.135 153.989 31.779 154.303 31.35 L 155.14 31.768 C 154.606 32.628 153.777 33.051 152.872 33.051 Z" fill="rgb(255,255,255)"></path><path d="M 158.561 33.051 C 157.576 33.051 156.625 32.764 156.047 32.037 L 156.803 31.396 C 157.232 31.877 157.868 32.169 158.549 32.169 C 159.225 32.169 159.918 31.889 159.918 31.276 C 159.918 30.692 159.524 30.548 158.785 30.388 L 157.995 30.21 C 157.164 30.022 156.402 29.575 156.402 28.687 C 156.402 27.558 157.307 26.831 158.63 26.831 C 159.603 26.831 160.296 27.043 160.778 27.616 L 160.05 28.24 C 159.638 27.851 159.265 27.702 158.596 27.702 C 157.948 27.702 157.49 28.028 157.49 28.509 C 157.49 29.002 157.96 29.168 158.527 29.283 L 159.449 29.483 C 160.285 29.661 161.047 30.153 161.047 31.115 C 161.047 32.415 159.747 33.051 158.561 33.051 Z" fill="rgb(255,255,255)"></path><path d="M 164.212 33 C 163.427 33 162.642 32.684 162.642 31.619 L 162.642 27.863 L 161.668 27.863 L 161.668 26.998 L 162.631 26.998 L 162.631 25.061 L 163.707 25.061 L 163.707 26.998 L 165.328 26.998 L 165.328 27.851 L 163.707 27.851 L 163.707 31.396 C 163.707 31.901 163.976 32.089 164.423 32.089 C 164.773 32.089 165.093 32.014 165.374 31.934 L 165.374 32.805 C 164.984 32.943 164.469 33 164.212 33 Z" fill="rgb(255,255,255)"></path><path d="M 171.87 29.105 L 169.911 29.105 L 169.911 31.922 L 171.91 31.922 C 172.843 31.922 173.491 31.453 173.491 30.491 C 173.491 29.54 172.809 29.105 171.87 29.105 Z M 171.824 25.542 L 169.911 25.542 L 169.911 28.132 L 171.801 28.132 C 172.66 28.132 173.267 27.702 173.267 26.796 C 173.267 25.858 172.683 25.542 171.824 25.542 Z M 172.07 32.908 L 168.766 32.908 L 168.766 24.547 L 172.013 24.547 C 173.491 24.547 174.453 25.263 174.453 26.666 C 174.453 27.535 173.971 28.206 173.198 28.521 L 173.198 28.544 C 174.172 28.801 174.699 29.575 174.699 30.525 C 174.699 32.135 173.399 32.908 172.07 32.908 Z" fill="rgb(255,255,255)"></path><path d="M 179.725 29.191 C 179.725 28.366 179.29 27.76 178.402 27.76 C 177.532 27.76 176.958 28.309 176.958 29.168 L 176.958 29.46 L 179.725 29.46 Z M 178.528 33.051 C 177.062 33.051 175.842 32.272 175.842 30.634 L 175.842 29.391 C 175.842 27.725 176.982 26.843 178.413 26.843 C 179.737 26.843 180.796 27.65 180.796 29.203 L 180.796 30.256 L 176.958 30.256 L 176.958 30.634 C 176.958 31.522 177.577 32.135 178.579 32.135 C 179.129 32.135 179.645 31.779 179.959 31.35 L 180.796 31.768 C 180.263 32.628 179.433 33.051 178.528 33.051 Z" fill="rgb(255,255,255)"></path><path d="M 184.075 33 C 183.29 33 182.505 32.684 182.505 31.619 L 182.505 27.863 L 181.531 27.863 L 181.531 26.998 L 182.494 26.998 L 182.494 25.061 L 183.57 25.061 L 183.57 26.998 L 185.191 26.998 L 185.191 27.851 L 183.57 27.851 L 183.57 31.396 C 183.57 31.901 183.84 32.089 184.286 32.089 C 184.636 32.089 184.956 32.014 185.237 31.934 L 185.237 32.805 C 184.848 32.943 184.333 33 184.075 33 Z" fill="rgb(255,255,255)"></path><path d="M 188.2 33 C 187.415 33 186.63 32.684 186.63 31.619 L 186.63 27.863 L 185.656 27.863 L 185.656 26.998 L 186.619 26.998 L 186.619 25.061 L 187.695 25.061 L 187.695 26.998 L 189.316 26.998 L 189.316 27.851 L 187.695 27.851 L 187.695 31.396 C 187.695 31.901 187.965 32.089 188.411 32.089 C 188.761 32.089 189.081 32.014 189.362 31.934 L 189.362 32.805 C 188.973 32.943 188.458 33 188.2 33 Z" fill="rgb(255,255,255)"></path><path d="M 194.051 29.191 C 194.051 28.366 193.616 27.76 192.728 27.76 C 191.858 27.76 191.284 28.309 191.284 29.168 L 191.284 29.46 L 194.051 29.46 Z M 192.854 33.051 C 191.388 33.051 190.168 32.272 190.168 30.634 L 190.168 29.391 C 190.168 27.725 191.308 26.843 192.739 26.843 C 194.063 26.843 195.122 27.65 195.122 29.203 L 195.122 30.256 L 191.284 30.256 L 191.284 30.634 C 191.284 31.522 191.904 32.135 192.905 32.135 C 193.455 32.135 193.971 31.779 194.286 31.35 L 195.122 31.768 C 194.589 32.628 193.76 33.051 192.854 33.051 Z" fill="rgb(255,255,255)"></path><path d="M 199.284 27.872 C 199.096 27.872 198.769 27.912 198.603 27.97 C 197.996 28.193 197.56 28.8 197.56 29.671 L 197.56 32.906 L 196.479 32.906 L 196.479 26.973 L 197.538 26.973 L 197.538 28.027 L 197.56 28.027 C 198.008 27.3 198.735 26.876 199.519 26.876 C 199.691 26.876 199.903 26.91 200.046 26.927 L 200.046 27.923 C 199.903 27.901 199.342 27.872 199.284 27.872 Z" fill="rgb(255,255,255)"></path><path d="M 15.9 4.71 C 12.941 8.55 8.374 15.207 8.952 20.209 C 9.528 25.183 13.953 29.76 18.939 30.395 C 19.011 30.462 18.967 31.288 18.973 31.465 L 20.844 31.465 C 20.853 31.236 20.768 30.525 20.944 30.395 C 26.089 29.659 30.589 24.879 30.931 19.674 C 31.246 14.898 26.583 8.128 23.717 4.442 C 22.525 2.91 21.203 1.474 19.942 0 C 18.532 1.509 17.16 3.074 15.9 4.71 Z M 15.9 7.782 L 19.007 3.741 L 18.873 10.956 Z M 20.877 3.807 L 23.983 7.849 L 20.877 11.023 Z M 20.777 13.594 L 24.953 9.353 L 27.725 14.129 L 20.81 21.043 Z M 12.159 14.129 L 14.865 9.353 L 19.04 13.594 L 18.939 20.976 Z M 20.844 23.482 L 28.426 15.899 C 30.868 21.31 26.351 27.7 20.81 28.592 Z M 11.391 15.899 L 19.04 23.548 L 18.939 28.592 C 13.414 27.648 9.002 21.3 11.391 15.899 Z" fill="rgb(255,255,255)"></path><path d="M 32.101 0.802 C 31.558 0.885 30.739 1.5 30.465 1.97 C 29.114 4.283 31.748 6.805 33.971 5.345 C 41.634 14.521 38.094 28.438 27.292 33.269 C 26.655 33.553 24.509 34.018 24.385 34.639 C 23.992 36.622 27.135 35.192 27.893 34.871 C 38.691 30.295 43.039 16.854 37.078 6.714 C 36.79 6.224 35.118 4.139 35.075 3.975 C 35.008 3.729 35.158 3.123 35.075 2.706 C 34.839 1.529 33.65 0.773 32.49 0.773 C 32.36 0.773 32.23 0.783 32.101 0.802 Z M 32.436 2.205 C 33.892 2.023 34.078 4.144 32.837 4.343 C 32.755 4.355 32.676 4.362 32.602 4.362 C 31.271 4.362 31.2 2.358 32.436 2.205 Z" fill="rgb(255,255,255)"></path><path d="M 7.918 1.002 C 6.864 1.215 3.574 5.341 2.94 6.379 C -2.262 14.901 -0.316 25.037 6.849 31.665 C 7.059 31.86 8.326 32.742 8.352 32.834 C 8.376 32.923 8.215 33.319 8.218 33.368 C 8.462 37.312 13.443 36.453 13.095 33.235 C 12.943 31.829 11.518 31.034 10.189 31.197 C 9.994 31.221 9.494 31.533 9.454 31.531 C 8.936 31.506 5.798 28.161 5.346 27.556 C 0.142 20.62 0.646 10.786 6.548 4.442 C 6.894 4.07 8.89 2.389 8.953 2.238 C 9.236 1.556 8.807 0.978 8.154 0.978 C 8.078 0.978 7.999 0.986 7.918 1.002 Z M 10.39 32.6 C 11.891 32.292 12.101 34.393 10.924 34.604 C 10.835 34.62 10.752 34.627 10.672 34.627 C 9.441 34.628 9.314 32.821 10.39 32.6 Z" fill="rgb(255,255,255)"></path></svg>