<svg width="201" height="36" viewBox="0 0 201 36" fill="none" xmlns="http://www.w3.org/2000/svg">
<path d="M50.9767 16.8608C50.9767 17.0349 51.0538 17.0936 51.2294 17.0936H54.3965C56.943 17.0936 58.0117 15.831 58.0117 12.8181C58.0117 9.82576 56.943 8.56242 54.3965 8.56242H51.2294C51.0538 8.56242 50.9767 8.62045 50.9767 8.79599V16.8608ZM54.3965 6.26858C58.2255 6.26858 60.3048 8.40671 60.3048 12.8372C60.3048 17.2486 58.2453 19.3867 54.3965 19.3867H49.7714C49.0332 19.3867 48.6836 19.0371 48.6836 18.318V7.33801C48.6836 6.61894 49.0332 6.26858 49.7714 6.26858H54.3965Z" fill="currentColor"/>
<path d="M65.297 16.8608C65.297 17.0349 65.3741 17.0936 65.5497 17.0936H68.7168C71.2633 17.0936 72.332 15.831 72.332 12.8181C72.332 9.82576 71.2633 8.56242 68.7168 8.56242H65.5497C65.3741 8.56242 65.297 8.62045 65.297 8.79599V16.8608ZM68.7168 6.26858C72.5458 6.26858 74.6251 8.40671 74.6251 12.8372C74.6251 17.2486 72.5656 19.3867 68.7168 19.3867H64.0917C63.3535 19.3867 63.0039 19.0371 63.0039 18.318V7.33801C63.0039 6.61894 63.3535 6.26858 64.0917 6.26858H68.7168Z" fill="currentColor"/>
<path d="M87.8377 6.26878V8.56261H82.766C80.2394 8.56261 79.131 9.82595 79.131 12.8374C79.131 15.8312 80.2203 17.0938 82.766 17.0938H87.8377V19.3869H82.766C78.9371 19.3869 76.8379 17.2297 76.8379 12.8374C76.8379 8.42673 78.9569 6.26878 82.766 6.26878H87.8377Z" fill="currentColor"/>
<path d="M98.0568 6.26858V11.6128H104.761V6.26858H107.073V19.3867H104.761V13.9059H98.0568V19.3867H95.7637V6.26858H98.0568Z" fill="currentColor"/>
<path d="M115.679 8.56242C113.153 8.56242 112.045 9.84485 112.045 12.857C112.045 15.8501 113.134 17.0936 115.679 17.0936H117.468C119.994 17.0936 121.082 15.8501 121.082 12.8372C121.082 9.84485 119.994 8.56242 117.468 8.56242H115.679ZM117.468 6.26858C121.276 6.26858 123.395 8.44563 123.395 12.857C123.395 17.2486 121.295 19.3867 117.468 19.3867H115.679C111.85 19.3867 109.752 17.2486 109.752 12.857C109.752 8.44563 111.87 6.26858 115.679 6.26858H117.468Z" fill="currentColor"/>
<path d="M128.248 6.26858V14.8394C128.248 16.1028 128.87 17.0936 130.93 17.0936H136.022V19.3867H130.794C127.315 19.3867 125.955 17.4829 125.955 14.8585V6.26858H128.248Z" fill="currentColor"/>
<path d="M140.471 16.861C140.471 17.0351 140.548 17.0938 140.724 17.0938H143.891C146.437 17.0938 147.506 15.8312 147.506 12.8183C147.506 9.82595 146.437 8.56261 143.891 8.56261H140.724C140.548 8.56261 140.471 8.62064 140.471 8.79618V16.861ZM143.891 6.26878C147.72 6.26878 149.799 8.4069 149.799 12.8374C149.799 17.2488 147.739 19.3869 143.891 19.3869H139.266C138.527 19.3869 138.178 19.0373 138.178 18.3182V7.33821C138.178 6.61913 138.527 6.26878 139.266 6.26878H143.891Z" fill="currentColor"/>
<path d="M154.789 19.3867H152.496V6.26857H154.789V19.3867Z" fill="currentColor"/>
<path d="M160.231 19.3883H157.938V8.89375C157.938 7.18384 158.909 6.03655 160.95 6.03655C162.776 6.03655 163.592 6.9701 164.136 8.46627L167.965 16.8418C168.121 17.1532 168.373 17.386 168.801 17.386C169.286 17.386 169.579 17.0952 169.579 16.6486V6.27012H171.891V16.7448C171.891 18.4745 170.899 19.6211 168.878 19.6211C167.052 19.6211 166.216 18.6883 165.672 17.1921L161.843 8.81589C161.669 8.42734 161.435 8.25253 161.028 8.25253C160.502 8.25253 160.231 8.54339 160.231 9.01053V19.3883Z" fill="currentColor"/>
<path d="M185.879 6.26878V8.56261H180.477C177.95 8.56261 176.842 9.82595 176.842 12.8374C176.842 15.8312 177.931 17.0938 180.477 17.0938H182.653C183.936 17.0938 184.48 16.3167 184.48 15.248C184.48 14.1984 183.936 13.5763 182.866 13.5763H179.952V11.5748H183.101C185.433 11.5748 186.578 13.0129 186.578 15.2862C186.578 17.5793 185.433 19.3869 182.498 19.3869H180.477C176.648 19.3869 174.549 17.2297 174.549 12.8374C174.549 8.42673 176.668 6.26878 180.477 6.26878H185.879Z" fill="currentColor"/>
<path d="M199.325 6.26878V8.56261H192.601C191.414 8.56261 190.891 9.20383 190.891 10.1168C190.891 10.9137 191.298 11.6717 192.834 11.6717H195.904C199.48 11.6717 200.316 13.6542 200.316 15.5389C200.316 17.7549 199.13 19.3869 196.137 19.3869H188.83V17.0938H196.216C197.459 17.0938 198.023 16.4137 198.023 15.4618C198.023 14.6068 197.575 13.829 195.962 13.829H192.912C189.414 13.829 188.598 11.8657 188.598 10.0397C188.598 7.86264 189.763 6.26878 192.678 6.26878H199.325Z" fill="currentColor"/>
<path d="M51.186 33.0508C49.4276 33.0508 47.9961 32.0776 47.9961 30.2215V27.4444C47.9961 25.5317 49.3417 24.3918 51.186 24.3918C52.8761 24.3918 54.2562 25.1307 54.2562 26.9515V27.2211H53.1567V27.0668C53.1567 25.8578 52.2973 25.4223 51.1632 25.4223C50.0468 25.4223 49.1706 26.1039 49.1706 27.3812V30.1532C49.1706 31.3387 50.0013 32.0254 51.2088 32.0254C52.3083 32.0254 53.1567 31.4878 53.1567 30.3133V29.6611H51.0318V28.6122H54.2562V30.3251C54.2562 32.1804 52.8643 33.0508 51.186 33.0508Z" fill="currentColor"/>
<path d="M58.6437 27.872C58.4549 27.872 58.1288 27.9124 57.9621 27.9697C57.3554 28.193 56.9198 28.8004 56.9198 29.6708V32.9062H55.8379V26.973H56.897V28.027H56.9198C57.3671 27.2998 58.0943 26.876 58.8787 26.876C59.0506 26.876 59.2621 26.9098 59.4053 26.9274V27.9234C59.2621 27.9006 58.701 27.872 58.6437 27.872Z" fill="currentColor"/>
<path d="M64.1411 29.2255C64.1411 28.3544 63.7114 27.7595 62.761 27.7595C61.8788 27.7595 61.3632 28.2971 61.3632 29.26V30.6688C61.3632 31.534 61.7988 32.1466 62.7492 32.1466C63.6255 32.1466 64.1411 31.6075 64.1411 30.646V29.2255ZM62.761 33.0508C61.2722 33.0508 60.2578 32.2039 60.2578 30.6916V29.3056C60.2578 27.7367 61.3742 26.8428 62.7492 26.8428C64.227 26.8428 65.2465 27.7712 65.2465 29.2828V30.5998C65.2465 32.1694 64.1183 33.0508 62.761 33.0508Z" fill="currentColor"/>
<path d="M72.8884 32.9199H71.7947L70.4484 28.3322H70.4139L69.0506 32.9199H67.9746L66.084 26.9749H67.2239L68.5247 31.5229H68.5585L69.9217 26.9749H70.9757L72.3265 31.5229H72.35L73.6846 26.9749H74.7672L72.8884 32.9199Z" fill="currentColor"/>
<path d="M80.8664 33.0508C79.2578 33.0508 78.0488 32.2715 77.6992 30.8921L78.7995 30.5483C79.0683 31.4305 79.7727 32.0372 80.8891 32.0372C81.7772 32.0372 82.7166 31.6075 82.7166 30.6343C82.7166 29.8212 82.0981 29.4833 81.2961 29.2711C81.0272 29.2027 79.8814 28.859 79.6243 28.7672C78.8105 28.4638 78.1465 27.8513 78.1465 26.7855C78.1465 25.2622 79.3489 24.4035 80.8891 24.4035C82.2237 24.4035 83.3064 24.8729 83.7471 26.0811L82.7504 26.5049C82.3787 25.7205 81.7661 25.3878 80.8781 25.3878C80.0761 25.3878 79.3026 25.8351 79.3026 26.6658C79.3026 27.3239 79.8182 27.65 80.4881 27.8395C80.7577 27.9247 81.9431 28.2626 82.2347 28.3662C83.1286 28.6754 83.8903 29.2711 83.8903 30.5138C83.8903 32.1231 82.5447 33.0508 80.8664 33.0508Z" fill="currentColor"/>
<path d="M92.5641 32.9082V29.1909C92.5641 28.286 92.1689 27.7821 91.43 27.7821C90.5934 27.7821 89.9985 28.521 89.9985 29.437V32.9082H88.9158V29.2027C88.9158 28.3205 88.5552 27.7821 87.7818 27.7821C87.1119 27.7821 86.3502 28.3778 86.3502 29.4032V32.9082H85.2676V26.9749H86.3157V27.8512H86.3385C86.763 27.221 87.3234 26.8427 88.1314 26.8427C89.0018 26.8427 89.5284 27.2665 89.809 27.8629C89.809 27.8629 89.8553 27.8629 89.8553 27.8512C90.2791 27.2438 90.874 26.8427 91.7334 26.8427C92.9078 26.8427 93.6467 27.6389 93.6467 28.7906V32.9082H92.5641Z" fill="currentColor"/>
<path d="M98.6918 30.256H97.2772C96.5956 30.256 95.9947 30.4676 95.9947 31.252C95.9947 31.8888 96.5273 32.1687 97.1692 32.1687C98.1769 32.1687 98.6918 31.6185 98.6918 30.8172V30.256ZM98.7667 32.9076C98.755 32.7644 98.7205 32.4382 98.7205 32.3002H98.6801C98.188 32.8275 97.6723 33.0391 96.968 33.0391C95.8456 33.0391 94.918 32.4493 94.918 31.3387C94.918 29.9527 96.1953 29.4599 97.214 29.4599H98.6918V28.7672C98.6918 28.0055 98.2284 27.6677 97.4608 27.6677C96.8306 27.6677 96.229 27.8844 96.229 28.4639V28.6519H95.2448V28.5212C95.2448 27.2666 96.373 26.8311 97.5012 26.8311C98.7036 26.8311 99.7627 27.2777 99.7627 28.6233V31.6648C99.7627 32.0144 99.7972 32.6498 99.8545 32.9076H98.7667Z" fill="currentColor"/>
<path d="M104.193 27.872C104.004 27.872 103.678 27.9124 103.511 27.9697C102.904 28.193 102.469 28.8004 102.469 29.6708V32.9062H101.387V26.973H102.446V28.027H102.469C102.916 27.2998 103.643 26.876 104.427 26.876C104.599 26.876 104.811 26.9098 104.954 26.9274V27.9234C104.811 27.9006 104.25 27.872 104.193 27.872Z" fill="currentColor"/>
<path d="M107.953 33C107.169 33 106.384 32.6842 106.384 31.6191V27.8629H105.41V26.9977H106.372V25.0615H107.448V26.9977H109.069V27.8512H107.448V31.3959C107.448 31.9005 107.718 32.0892 108.165 32.0892C108.514 32.0892 108.834 32.0143 109.115 31.9342V32.8046C108.726 32.9427 108.211 33 107.953 33Z" fill="currentColor"/>
<path d="M113.803 29.191C113.803 28.3662 113.368 27.7595 112.48 27.7595C111.61 27.7595 111.036 28.3089 111.036 29.1682V29.4598H113.803V29.191ZM112.606 33.0508C111.14 33.0508 109.92 32.2715 109.92 30.6343V29.3908C109.92 27.7249 111.06 26.8428 112.491 26.8428C113.815 26.8428 114.874 27.65 114.874 29.2027V30.256H111.036V30.6343C111.036 31.5223 111.656 32.1349 112.657 32.1349C113.207 32.1349 113.723 31.7794 114.038 31.3497L114.874 31.7683C114.341 32.6277 113.512 33.0508 112.606 33.0508Z" fill="currentColor"/>
<path d="M119.308 27.872C119.119 27.872 118.793 27.9124 118.626 27.9697C118.019 28.193 117.584 28.8004 117.584 29.6708V32.9062H116.502V26.973H117.561V28.027H117.584C118.031 27.2998 118.758 26.876 119.542 26.876C119.714 26.876 119.926 26.9098 120.069 26.9274V27.9234C119.926 27.9006 119.365 27.872 119.308 27.872Z" fill="currentColor"/>
<path d="M121.191 31.6191C121.191 31.9005 121.461 32.0892 121.908 32.0892C122.257 32.0892 122.577 32.0143 122.858 31.9342V32.8046C122.469 32.9427 121.954 33 121.696 33C120.912 33 120.127 32.6842 120.127 31.6191V27.8629H119.153V26.9977H120.115V25.0615H121.191V26.9977H122.812V27.8512H121.191V31.6191Z" fill="currentColor"/>
<path d="M20.0684 0C9.0228 0 0 9.0228 0 20.0684C0 31.114 9.0228 36 20.0684 36C31.114 36 36 31.114 36 20.0684C36 9.0228 31.114 0 20.0684 0Z" fill="currentColor" fill-opacity="0.1"/>
<path d="M18 28V18M18 18C18 18 14 16 14 12C14 8 18 7 18 7C18 7 22 8 22 12C22 16 18 18 18 18ZM14 18C14 18 11 17 11 14C11 11 14 10 14 10C14 10 17 11 17 14C17 17 14 18 14 18ZM22 16C22 16 25 15 25 12C25 9 22 8 22 8C22 8 19 9 19 12C19 15 22 16 22 16Z" stroke="currentColor" stroke-width="1.5" stroke-linecap="round"/>
<circle cx="18" cy="18" r="17" stroke="currentColor" stroke-width="1.5" fill="none"/>
</svg>
